M48
INCH
T01C0.0400
T02C0.0300
T03C0.0600
T04C0.1181
%
T01
X-034500Y+002500
X-034500Y+001500
X-034500Y-001500
X-034500Y-002500
X-034500Y+000500
X-034500Y-000500
X-012000Y+015000
X-012000Y+011000
X-012000Y+007000
X-012000Y+003000
X-012000Y-002000
X-012000Y-006000
X-011500Y-010000
X-011500Y-014000
X+003000Y-010250
X+003000Y-014250
X-015250Y-010000
X-015250Y-011000
X+001000Y-010250
X+001000Y-001250
T02
X-031500Y+005000
X-027500Y+005000
X-031500Y+001500
X-027500Y+001500
X-031500Y-002000
X-027500Y-002000
X-031500Y-006000
X-027500Y-006000
X-031500Y+003500
X-027500Y+003500
X-031500Y+000000
X-027500Y+000000
X-031500Y-004000
X-027500Y-004000
X-031500Y-008000
X-027500Y-008000
X-023500Y+003200
X-023500Y+004000
X-023500Y+004800
X-023500Y-000300
X-023500Y+000500
X-023500Y+001300
X-023500Y-003800
X-023500Y-003000
X-023500Y-002200
X-023500Y-007300
X-023500Y-006500
X-023500Y-005700
X-019000Y+010000
X-019000Y+009000
X-019000Y+008000
X-016000Y+008000
X-016000Y+009000
X-016000Y+010000
X-019000Y+005500
X-019000Y+004500
X-019000Y+003500
X-016000Y+003500
X-016000Y+004500
X-016000Y+005500
X-019000Y+000500
X-019000Y-000500
X-019000Y-001500
X-016000Y-001500
X-016000Y-000500
X-016000Y+000500
X-019000Y-004500
X-019000Y-005500
X-019000Y-006500
X-016000Y-006500
X-016000Y-005500
X-016000Y-004500
X-027500Y+007000
X-031500Y+007000
X-027500Y+008500
X-031500Y+008500
X-027500Y-012250
X-031500Y-012250
X-027500Y-010000
X-031500Y-010000
T03
X-009030Y+020000
X-011000Y+020000
X-008000Y+015500
X-008000Y+010775
X-008787Y+013137
X-003196Y+015500
X-003196Y+010775
X-008000Y-009500
X-008000Y-014224
X-008787Y-011862
X-003196Y-009500
X-003196Y-014224
X-008000Y+007500
X-008000Y+002775
X-008787Y+005137
X-003196Y+007500
X-003196Y+002775
X-008000Y-001500
X-008000Y-006224
X-008787Y-003862
X-003196Y-001500
X-003196Y-006224
X+005000Y-017750
X+006970Y-017750
X+006500Y-013220
X+006500Y-011250
X+006500Y-004750
X+006500Y-002780
X+006500Y+004250
X+006500Y+006220
X+006500Y+012250
X+006500Y+014220
T04
X-033858Y+019291
X-033858Y-018110
X+005905Y+019291
X-000393Y-018110
M30
